<svg width="60" height="62" viewBox="0 0 60 62" fill="none" xmlns="http://www.w3.org/2000/svg">
<g clip-path="url(#clip0_481_1278)">
<path d="M45.4601 38.65C45.4418 36.971 45.0393 35.3186 44.2836 33.8192C43.5278 32.3199 42.4389 31.0134 41.1001 30C42.5456 27.8837 43.8807 25.6941 45.1001 23.44C49.4601 15.35 50.1601 10.53 51.1001 2.02C51.1158 1.80918 51.0642 1.59883 50.9528 1.41916C50.8414 1.23949 50.6759 1.09975 50.4801 1.02C50.2776 0.935054 50.0554 0.907843 49.8383 0.941378C49.6212 0.974913 49.4177 1.06789 49.2501 1.21C42.5901 7.04 38.5701 10.56 34.1401 18.78C32.7171 21.4406 31.4581 24.1857 30.3701 27H29.6501C28.5622 24.1857 27.3032 21.4406 25.8801 18.78C21.4401 10.63 17.4201 7.11 10.7601 1.28C10.5926 1.13789 10.3891 1.04491 10.172 1.01138C9.95487 0.977843 9.73273 1.00505 9.53014 1.09C9.33437 1.16975 9.1689 1.30949 9.05751 1.48916C8.94611 1.66883 8.89452 1.87918 8.91014 2.09C9.86014 10.6 10.5601 15.42 14.9101 23.51C16.1296 25.7641 17.4647 27.9537 18.9101 30.07C17.5767 31.0793 16.491 32.3794 15.7355 33.8713C14.98 35.3633 14.5746 37.0078 14.5501 38.68V42.21C13.4112 43.1662 12.4926 44.3575 11.8574 45.7022C11.2222 47.0468 10.8854 48.513 10.8701 50C10.8701 56.09 16.4601 61 23.3201 61C25.6611 61.0075 27.9635 60.4043 30.0001 59.25C32.0367 60.4043 34.3392 61.0075 36.6801 61C43.5401 61 49.1301 56 49.1301 50C49.1147 48.5154 48.7787 47.0517 48.1453 45.709C47.5119 44.3662 46.596 43.1761 45.4601 42.22V38.65Z" stroke="#fa5d5d" stroke-width="2" stroke-miterlimit="10"/>
<path d="M34.0502 45.06C33.8334 44.8812 33.5612 44.7834 33.2802 44.7834C32.9992 44.7834 32.7269 44.8812 32.5102 45.06L31.6902 45.79L28.2102 45.9L27.4902 45.26C27.2734 45.0812 27.0012 44.9834 26.7202 44.9834C26.4392 44.9834 26.1669 45.0812 25.9502 45.26C25.851 45.3445 25.7714 45.4495 25.7168 45.5678C25.6622 45.686 25.6339 45.8147 25.6339 45.945C25.6339 46.0753 25.6622 46.204 25.7168 46.3222C25.7714 46.4405 25.851 46.5455 25.9502 46.63L28.8002 49.15V51.6C28.8261 51.8698 28.9516 52.1202 29.1522 52.3025C29.3528 52.4847 29.6141 52.5857 29.8852 52.5857C30.1562 52.5857 30.4175 52.4847 30.6181 52.3025C30.8187 52.1202 30.9442 51.8698 30.9702 51.6V49.15L34.0502 46.43C34.1493 46.3455 34.2289 46.2405 34.2835 46.1222C34.3381 46.004 34.3664 45.8753 34.3664 45.745C34.3664 45.6147 34.3381 45.486 34.2835 45.3678C34.2289 45.2495 34.1493 45.1445 34.0502 45.06Z" fill="#fa5d5d"/>
<path d="M17.1001 46.33C16.8312 46.3294 16.5703 46.2378 16.3601 46.07C16.1201 45.87 10.6201 41.45 1.36014 43.64C1.09456 43.7257 0.806307 43.7073 0.553785 43.5885C0.301263 43.4697 0.103352 43.2593 0.000143444 43C-0.0532153 42.7415 -0.00221421 42.4724 0.142027 42.2514C0.286267 42.0303 0.512049 41.8753 0.770143 41.82C11.2401 39.35 17.5501 44.5 17.7701 44.72C17.8691 44.8035 17.9486 44.9077 18.0031 45.0251C18.0577 45.1426 18.0859 45.2705 18.0859 45.4C18.0859 45.5295 18.0577 45.6574 18.0031 45.7749C17.9486 45.8923 17.8691 45.9965 17.7701 46.08C17.5791 46.2324 17.3444 46.32 17.1001 46.33Z" fill="#fa5d5d"/>
<path d="M2.29016 51.2C2.12033 51.2043 1.95177 51.1696 1.79747 51.0985C1.64317 51.0274 1.50724 50.9219 1.40016 50.79C1.31809 50.689 1.25918 50.5712 1.22757 50.4449C1.19596 50.3187 1.19243 50.187 1.21722 50.0593C1.24201 49.9315 1.29452 49.8107 1.37105 49.7055C1.44758 49.6002 1.54627 49.513 1.66016 49.45C3.88678 47.9781 6.41167 47.0175 9.05355 46.6372C11.6954 46.2568 14.3888 46.4661 16.9402 47.25C17.0654 47.2881 17.181 47.3525 17.2794 47.4389C17.3777 47.5253 17.4565 47.6317 17.5105 47.7509C17.5644 47.8702 17.5923 47.9996 17.5922 48.1305C17.5922 48.2614 17.5642 48.3908 17.5102 48.51C17.376 48.7558 17.1561 48.9436 16.8924 49.0377C16.6287 49.1317 16.3396 49.1254 16.0802 49.02C15.8102 48.92 9.78016 46.76 2.91016 51.02C2.72469 51.1375 2.5097 51.1999 2.29016 51.2Z" fill="#fa5d5d"/>
<path d="M6.42015 56.41C6.20226 56.4079 5.98864 56.3493 5.80015 56.24C5.68679 56.1766 5.58848 56.0895 5.51196 55.9846C5.43545 55.8796 5.38255 55.7594 5.3569 55.6321C5.33125 55.5048 5.33346 55.3734 5.36336 55.2471C5.39327 55.1207 5.45017 55.0023 5.53015 54.9C6.75625 53.2825 8.33859 51.9692 10.1544 51.0622C11.9701 50.1552 13.9705 49.6788 16.0002 49.67C16.2654 49.67 16.5197 49.7753 16.7073 49.9629C16.8948 50.1504 17.0002 50.4048 17.0002 50.67C16.9893 50.8062 16.9505 50.9388 16.8864 51.0595C16.8222 51.1803 16.734 51.2865 16.6272 51.3718C16.5204 51.4571 16.3972 51.5196 16.2652 51.5554C16.1333 51.5912 15.9954 51.5996 15.8602 51.58C14.1932 51.6205 12.5573 52.0395 11.0761 52.8052C9.59485 53.5709 8.30709 54.6634 7.31015 56C7.20358 56.1325 7.06775 56.2384 6.91333 56.3096C6.75891 56.3807 6.5901 56.4151 6.42015 56.41Z" fill="#fa5d5d"/>
<path d="M42.9001 46.33C42.6083 46.3339 42.3258 46.2266 42.1101 46.03C42.0112 45.9465 41.9317 45.8423 41.8771 45.7249C41.8226 45.6074 41.7943 45.4795 41.7943 45.35C41.7943 45.2205 41.8226 45.0926 41.8771 44.9751C41.9317 44.8577 42.0112 44.7536 42.1101 44.67C42.3801 44.45 48.6801 39.3 59.1101 41.77C59.2538 41.7819 59.3933 41.8247 59.5189 41.8956C59.6445 41.9664 59.7534 42.0636 59.8379 42.1804C59.9224 42.2972 59.9807 42.431 60.0087 42.5724C60.0367 42.7139 60.0338 42.8598 60.0001 43C59.9047 43.2604 59.7152 43.4756 59.4691 43.6033C59.223 43.731 58.9379 43.7619 58.6701 43.69C49.4101 41.5 43.9101 45.93 43.6701 46.12C43.4453 46.2766 43.1733 46.3507 42.9001 46.33Z" fill="#fa5d5d"/>
<path d="M57.7102 51.2C57.4916 51.2029 57.2767 51.144 57.0902 51.03C55.1716 49.7609 52.9997 48.9247 50.7255 48.5793C48.4512 48.2339 46.129 48.3877 43.9202 49.03C43.6603 49.131 43.3728 49.1351 43.1101 49.0414C42.8475 48.9478 42.6274 48.7627 42.4902 48.52C42.4361 48.4008 42.4081 48.2714 42.4081 48.1405C42.408 48.0096 42.4359 47.8802 42.4899 47.7609C42.5438 47.6417 42.6226 47.5353 42.7209 47.4489C42.8193 47.3625 42.9349 47.2981 43.0602 47.26C45.6119 46.4789 48.3048 46.2711 50.9462 46.6514C53.5876 47.0317 56.1124 47.9907 58.3402 49.46C58.4541 49.523 58.5527 49.6102 58.6293 49.7155C58.7058 49.8208 58.7583 49.9415 58.7831 50.0693C58.8079 50.1971 58.8044 50.3287 58.7728 50.455C58.7411 50.5812 58.6822 50.699 58.6002 50.8C58.4916 50.9295 58.3551 51.0328 58.201 51.102C58.0469 51.1713 57.8791 51.2048 57.7102 51.2Z" fill="#fa5d5d"/>
<path d="M53.5801 56.41C53.4094 56.4139 53.24 56.378 53.0855 56.3051C52.9311 56.2322 52.7957 56.1243 52.6901 55.99C51.6891 54.6616 50.4014 53.5761 48.9228 52.8143C47.4442 52.0525 45.8128 51.634 44.1501 51.59C44.0141 51.6111 43.8751 51.6038 43.742 51.5687C43.6089 51.5336 43.4845 51.4714 43.3765 51.386C43.2686 51.3005 43.1794 51.1937 43.1147 51.0723C43.0499 50.9508 43.0109 50.8172 43.0001 50.68C43.0001 50.4148 43.1055 50.1604 43.293 49.9729C43.4806 49.7853 43.7349 49.68 44.0001 49.68C46.028 49.6929 48.026 50.1701 49.8409 51.0749C51.6558 51.9798 53.2394 53.2882 54.4701 54.9C54.5501 55.0023 54.607 55.1207 54.6369 55.2471C54.6668 55.3735 54.669 55.5048 54.6434 55.6321C54.6177 55.7594 54.5648 55.8797 54.4883 55.9846C54.4118 56.0895 54.3135 56.1766 54.2001 56.24C54.0116 56.3493 53.798 56.4079 53.5801 56.41Z" fill="#fa5d5d"/>
</g>
<defs>
<clipPath id="clip0_481_1278">
<rect width="60" height="62" fill="white"/>
</clipPath>
</defs>
</svg>
