<svg width="62" height="62" viewBox="0 0 62 62" fill="none" xmlns="http://www.w3.org/2000/svg">
<g clip-path="url(#clip0_481_1291)">
<path d="M19.4802 45.92C21.3677 39.1285 25.5611 33.2061 31.3402 29.17" stroke="#fa5d5d" stroke-width="2" stroke-linecap="round" stroke-linejoin="round"/>
<path d="M20.1802 43.13C16.6902 36.85 17.1802 29.77 23.1802 24.97C29.4002 19.97 38.3302 18.51 46.0402 17.97C44.6402 18.67 43.1902 21.34 42.8302 22.05C40.2302 27.2 42.9102 32.93 40.6602 38.05C38.3302 43.32 31.1502 45.93 25.8002 44.54" stroke="#fa5d5d" stroke-width="2" stroke-linecap="round" stroke-linejoin="round"/>
<path d="M56.1602 4.87V14.55H46.4802" stroke="#fa5d5d" stroke-width="2" stroke-linecap="round" stroke-linejoin="round"/>
<path d="M5.84015 57.13V47.45H15.5201" stroke="#fa5d5d" stroke-width="2" stroke-linecap="round" stroke-linejoin="round"/>
<path d="M59.4002 21.32C61.7636 28.2355 61.5213 35.776 58.7189 42.5255C55.9165 49.2751 50.7467 54.7696 44.1801 57.9774C37.6135 61.1852 30.1018 61.8857 23.0553 59.9473C16.0088 58.0089 9.9122 53.5651 5.91016 47.45" stroke="#fa5d5d" stroke-width="2" stroke-linecap="round" stroke-linejoin="round"/>
<path d="M2.60014 40.68C0.267522 33.8595 0.468684 26.4272 3.16682 19.7428C5.86495 13.0585 10.8797 7.56911 17.2934 4.27908C23.7071 0.989052 31.091 0.118352 38.0941 1.82629C45.0972 3.53423 51.2512 7.7066 55.4301 13.58" stroke="#fa5d5d" stroke-width="2" stroke-linecap="round" stroke-linejoin="round"/>
</g>
<defs>
<clipPath id="clip0_481_1291">
<rect width="62" height="62" fill="white"/>
</clipPath>
</defs>
</svg>
