<svg width="62" height="62" viewBox="0 0 62 62" fill="none" xmlns="http://www.w3.org/2000/svg">
<g clip-path="url(#clip0_481_1263)">
<path d="M52.5001 51.32C50.7128 52.9671 48.5217 54.1121 46.149 54.639C43.7763 55.1658 41.3065 55.0558 38.9901 54.32" stroke="#fa5d5d" stroke-width="2" stroke-linecap="round" stroke-linejoin="round"/>
<path d="M53.2601 30.15C55.8901 29.92 58.5101 29.87 61.0001 29.9C59.5701 30.48 57.9301 32.99 57.5201 33.66C55.9901 36.15 55.8301 38.91 55.6701 41.66" stroke="#fa5d5d" stroke-width="2" stroke-linecap="round" stroke-linejoin="round"/>
<path d="M40.6901 33.35C42.2391 32.5897 43.8562 31.977 45.5201 31.52" stroke="#fa5d5d" stroke-width="2" stroke-linecap="round" stroke-linejoin="round"/>
<path d="M35.8401 61C35.0001 52.87 29.4101 42.81 23.2601 36.7" stroke="#fa5d5d" stroke-width="2" stroke-linecap="round" stroke-linejoin="round"/>
<path d="M18.4901 53.26C21.208 53.9832 24.0624 54.0244 26.8001 53.38" stroke="#fa5d5d" stroke-width="2" stroke-linecap="round" stroke-linejoin="round"/>
<path d="M15.5101 21.44C10.7448 20.3104 5.88948 19.601 1.00012 19.32C2.78012 20.22 4.64012 23.64 5.10012 24.56C8.40012 31.17 4.94012 38.49 7.79012 45" stroke="#fa5d5d" stroke-width="2" stroke-linecap="round" stroke-linejoin="round"/>
<path d="M34.0001 51.61C38.5001 43.61 37.8501 34.52 30.2801 28.34C29.2902 27.5396 28.2516 26.8015 27.1701 26.13" stroke="#fa5d5d" stroke-width="2" stroke-linecap="round" stroke-linejoin="round"/>
<path d="M22.2901 5.84V20.35L11.2901 53.35C10.9962 54.2234 10.9146 55.1543 11.0521 56.0655C11.1896 56.9767 11.5423 57.842 12.0809 58.5898C12.6195 59.3375 13.3285 59.9462 14.1492 60.3654C14.9699 60.7845 15.8786 61.0021 16.8001 61H48.7001C49.6414 61.0019 50.5689 60.7748 51.4027 60.3382C52.2365 59.9015 52.9515 59.2686 53.4861 58.4939C54.0206 57.7191 54.3585 56.826 54.4707 55.8915C54.583 54.957 54.4661 54.0092 54.1301 53.13L41.6501 20.35V5.84" stroke="#fa5d5d" stroke-width="2" stroke-linecap="round" stroke-linejoin="round"/>
<path d="M24.2301 5.84H22.2901C21.7756 5.84 21.2821 5.63561 20.9183 5.27179C20.5545 4.90797 20.3501 4.41452 20.3501 3.9V2.9C20.3606 2.39244 20.5696 1.90921 20.9323 1.554C21.295 1.19878 21.7824 0.999892 22.2901 1H41.6501C42.1629 1.00264 42.6538 1.2082 43.0154 1.57174C43.3771 1.93527 43.5801 2.42721 43.5801 2.94V3.94C43.5801 4.45279 43.3771 4.94473 43.0154 5.30826C42.6538 5.6718 42.1629 5.87736 41.6501 5.88H32.9401" stroke="#fa5d5d" stroke-width="2" stroke-linecap="square" stroke-linejoin="round"/>
</g>
<defs>
<clipPath id="clip0_481_1263">
<rect width="62" height="62" fill="white"/>
</clipPath>
</defs>
</svg>
